# xmcd CD database file
#
# Track frame offsets:
#	150
#	14371
#	31563
#	42476
#	63553
#	74954
#	91079
#	100230
#	119511
#	127988
#	143222
#	155972
#	176447
#
# Disc length: 2775 seconds
#
# Revision: 0
# Processed by: cddbd v1.5.2PL0 Copyright (c) Steve Scherf et al.
# Submitted via: CDex 1.70beta2
#
DISCID=b80ad50d
DTITLE=Dino - Dino presents an instrumental Christmas
DYEAR=2007
DGENRE=Jazz
TTITLE0=Jingle Bells
TTITLE1=The Christmas Song - White Christmas
TTITLE2=Its Beginning To Look A Lot Like Christmas
TTITLE3=Nutcracker Suite
TTITLE4=Sleigh Ride
TTITLE5=Classical Christmas
TTITLE6=Silver Bells
TTITLE7=Have Yourself A Merry Little Christmas
TTITLE8=Carol Of The Bells
TTITLE9=Christmas In Minor
TTITLE10=What Child Is This
TTITLE11=Christmas Fantasy
TTITLE12=Christmas Medley
EXTD=YEAR: 2007
EXTT0=
EXTT1=
EXTT2=
EXTT3=
EXTT4=
EXTT5=
EXTT6=
EXTT7=
EXTT8=
EXTT9=
EXTT10=
EXTT11=
EXTT12=
PLAYORDER=
